<?xml version="1.0" encoding="utf-8"?>
<!-- Generator: Adobe Illustrator 26.5.0, SVG Export Plug-In . SVG Version: 6.00 Build 0)  -->
<svg version="1.1" id="Layer_1" xmlns="http://www.w3.org/2000/svg" xmlns:xlink="http://www.w3.org/1999/xlink" x="0px" y="0px"
	 viewBox="0 0 748.6 325.2" style="enable-background:new 0 0 748.6 325.2;" xml:space="preserve">
<style type="text/css">
	.st0{fill:#050601;}
</style>
<g id="Layer_1_00000111884458660896081000000012942520533354906029_">
	<g>
		<path class="st0" d="M748.6,166.3c-16,9.4-36.4,30.8-40.4,34.8c-12,11.8-25.3,22.1-39.7,30.7c-0.4,0.4-0.9,0.4-1.3,0.3
			c-0.7-0.3-0.9-1.1-0.7-1.7c1.5-5.4,3.2-12.2,5.2-20.4c2.6-10.8,4.4-18,5.2-20.9s2.9-11.1,6.2-24.5s7.5-28.4,12.6-44.7
			c6.1-19.2,12.6-31.5,19.2-36.6l0.3-0.3c0.7-0.3,1.1-1.1,0.8-1.7c-0.3-0.7-1.1-1.1-1.7-0.8l-14.7,0.9c-6.5,0.5-12.8,1.7-19,3.6
			c-2.5,0.8-4.6,2.2-6.5,4.2c-1.8,1.9-3.3,3.4-4.4,4.6c-0.1,0.1-0.2,0.2-0.2,0.3c-1.5,2.2-2.8,4.5-3.7,7.1c-1.3,3.3-2.4,6-2.9,7.8
			s-1.6,5.2-3,10.2c-1.5,5-2.5,8.7-3.3,11.4c-6.3,20-15.2,39-26.5,56.7c-11.5,18.6-21.4,28.3-29.2,28.8h-0.3c-3.2,0-5-3.8-5.6-11.2
			c-0.9-16.1,2.6-36.4,11-60.4c8.3-24.1,16.9-41.1,25.8-50.8c1.6-2,2.4-3.6,2.2-5c0-0.1,0-0.1,0-0.3c-0.1-1.5-1.5-2.6-3-2.5
			c-12.6,0.8-22.4,3-29.5,7s-13.9,12-19.8,24.2c-5.2,10.3-9.7,23.7-13.5,39.8c0,0.1-0.1,0.1-0.1,0.3c-0.7,1.3-1.5,2.9-2.4,5
			c-2.8,5.8-6,12.7-9.8,20.4c-3.2,6.6-6.7,13.1-10.6,19.3c-3.6,5.4-7.7,10.4-12.4,14.9c-6.1,5.8-9.5,7.1-11.4,7.3h-0.4
			c-2,0-4.6-0.8-5-7.5c-0.7-9.5,3.3-29,11.6-57.9c4-13.5,6.2-22.2,7.1-26.7c0.9-4.5,1.2-9,0.9-13.5c-0.8-14.2-8.5-20.9-22.6-20
			c-17.7,1.1-34.9,10.3-51.4,27.5c-0.3,0.3-0.8,0.5-1.2,0.4c-0.8-0.1-1.3-0.8-1.2-1.6c0.7-3.2,0.9-6.5,0.9-9.7
			c-0.1-3.2-1.9-6.2-4.6-8.1s-8.2-2.4-16.8-1.9l-14.7,0.9c-0.3,0-0.5,0.1-0.8,0.3c-0.7,0.4-0.7,1.3-0.3,1.9c0.8,1.6,1.2,3.3,1.2,5
			c0.7,10.2-2.4,28.6-8.9,54.8l-1.7,3.2c-0.8,0.8-2,2.9-5,9.1c-2.8,5.8-6.1,12.7-9.9,20.6c-3.8,7.9-7.3,14.4-10.4,19.6
			c-3.4,5.4-7.5,10.3-12.3,14.7c-6.2,5.7-9.7,7-11.5,7.1h-0.4c-1.2,0-4.8,0-5.4-9.4c-0.5-7.1,0.8-16.7,3.8-28.6
			c3-11.9,6-21.4,8.5-28.4c2.5-6.7,6.3-16.8,11.9-31.5c5.3-13.6,9.7-22.1,13-25.3c0.3-0.3,0.4-0.7,0.4-1.1c0-0.8-0.7-1.3-1.5-1.3
			l-21.2,1.1c-10.6,0.7-19.6,9.3-27,25.5c-6.2,14-11.4,28.6-15.5,43.4c-0.1,0.3-0.1,0.4-0.3,0.7c-17.9,45-33.6,68.2-47,69h-0.4
			c-1.1,0-4.2,0-4.8-7.9c-0.4-6.2,0.5-14.8,2.9-25.5c0.8-4.2,2.1-9.7,3.8-15.9c1.7-6.2,3-11.1,4.1-14.8c1.1-3.6,2.4-8.3,4-14
			c1.7-5.7,3.2-10.8,4.5-15.2c1.5-4.8,2-9.8,1.6-14.8c-0.9-13.6-8.5-20.1-22.6-19.2c-7.5,0.7-14.8,2.6-21.4,6.1
			c-4.5,2.2-8.7,5-12.7,8.1c-0.5,0.5-1.5,0.5-2,0s-0.5-1.5,0-2c22.9-33.2,39.4-63,49.3-88.5c5.4-14.4,7.9-25.9,7.4-34.5
			c-0.9-12.8-7.5-19-20-18.3c-11.8,0.8-22.9,6.7-32.8,17.9c-10.4,12-19,25.7-25.4,40.2c-8.2,18.6-15.2,38-21.2,57.5
			c-6.9,22.5-15.3,53.8-24.6,93c-9.3,39.1-16.5,68.1-21.7,86v0.5c0,0.8,0.7,1.3,1.5,1.3l34.9-2.2l0.3-1.1c1.6-8.1,3.2-15.1,4.8-21.2
			s3.3-14.3,5.3-23.8c2-9.5,4-17.9,6-24.6c2-6.7,4.8-14.8,8.2-24.1c3.3-8.7,7.8-17.1,13.5-24.5c4.9-6.5,10.8-12,17.7-16.5
			c7.8-4.9,11.5-6,13.2-6.1h0.5c2,0,4.4,0.7,4.8,6c0.3,3.4-0.9,9.9-3.6,19.3c-12.3,38.1-17.9,67.7-16.5,87.9
			c1.2,18.3,9.1,27,23.8,26.1c16.7-1.1,34.7-19.6,54.6-56.2c0.3-0.7,0.9-1.1,1.7-0.9c0.7,0.3,1.1,0.9,0.9,1.7c-0.1,4.1,0,8.1,0.3,12
			c1.2,19.8,8.5,29.9,21.3,29.9h1.6c7.8-0.5,16.3-5.2,25-13.9c3.9-3.9,7.6-8.1,11.1-12.4c5.3-7.1,7.9-10.7,14.5-22.2
			c-0.8,3.8-8,28.5-7.2,34.9c0.3,0.1,36.4-2.4,36.4-2.4l0.3-1.1c0.3-1.1,1.5-7.9,2.5-13.5c1.5-7.9,2.9-15.6,4.5-22.9
			c1.5-7,3.7-16,6.3-26.7c2.4-9.7,5.4-19.2,9.1-28.3c3.6-8.3,7.4-16.5,11.8-24.5c3.6-7.1,8.6-13.5,14.7-18.6
			c4.9-4.1,10.8-6.6,17.1-7.1c5.4-0.4,8.1,1.5,8.3,6.1c0.1,2.2-0.1,4.6-0.9,6.9c-14.3,51.1-20.9,85.3-19.8,102
			c1.1,17.5,9,25.8,23.7,24.9c7.8-0.5,16.3-5.2,25-13.9c8.9-8.9,16.7-18.8,22.9-29.6c2.1-3.4,4.2-7.3,6.3-11.4
			c0.3-0.7,0.9-1.1,1.7-0.9c0.7,0.3,1.1,0.9,0.9,1.7c-0.1,2.1-0.1,4.1,0,5.8c0.5,10.8,2.9,19,7.3,24.6c4.4,5.6,10.1,8.2,16.7,7.8
			c5.6-0.3,11.1-1.5,16.4-3.4c4.6-1.9,10.7-6.9,18.5-15.1c6-6.6,11.5-13.6,16.5-21c0.3-0.4,0.9-0.7,1.5-0.5c0.7,0.3,1.2,0.9,0.9,1.7
			l-12.3,40.1c0,0.4-0.4,0.8-0.9,0.9c-218.9,31.9-32.4,158,34.6,5c0.1-0.4,0.4-0.8,0.8-0.9c1.2-0.4,2.4-0.9,3.4-1.5
			c18.2-8.8,28-15.5,50.6-36.6S739.3,182.8,748.6,166.3z M225.9,139.6c-0.4,0.5-1.1,0.7-1.6,0.5c-0.7-0.3-1.2-0.9-0.9-1.7
			c8.9-30.7,18.1-58.6,27.6-83.1c13.8-35.4,22.9-43.4,28-43.6l0.3,0.1c0.7,0,2.9,0,3.3,5.8c0.3,4.8-2.2,15.5-7.7,31.6
			C266.2,72.9,249.7,103.2,225.9,139.6z M554.1,298.6c-6.9-15,60.9-32.4,66.4-33.5C607.6,294,561.9,315.7,554.1,298.6z"/>
		<path class="st0" d="M386,90.8c8.5-0.4,19-3.6,21.6-16.1c1.2-5.7-2.2-12.2-4.4-14c-2.1-1.9-5-2.6-8.9-2.4
			c-3.8,0.3-8.5,2.6-12.8,6.7c-5.8,5.4-5.6,13.2-3.7,18.4C379.5,87.8,382.6,90.7,386,90.8z"/>
		<path class="st0" d="M36.2,303c5.4,0.4,90.4,19,114.3-64.6c9.1-35.3-33.7-82.2-37.2-86.7c0-0.1-0.1-0.1-0.1-0.1
			C61.8,99,88.2,46.5,124,52.3c25.8,4.2,12.4,42.1,26.3,45.8h0.3c8.3,0.8,24.6-19.2,27-25.9C186.8,46,133.4,30,117.1,31
			c-32.6,2-54,19.7-67.1,48.9c-24.1,53.8,20.9,89.7,48.1,126.6c20.6,27.9,19.7,52.8-5.6,76.7c-27.8,26.3-56-11-59.7-36.5
			c-3.3-23.4-7.1-38.6-26.7-8.8C-11.9,265.5,13.3,299.4,36.2,303z"/>
	</g>
</g>
</svg>
